<?xml version="1.0" encoding="UTF-8" standalone="no"?>
<!-- MSU bulldog "M" emblem (white), cropped from MSU_logo_white.svg.
     The source was exported on a full A4 artboard (viewBox 0 0 210 297)
     with the mark occupying only a small central region, so it rendered
     as a tiny speck. This viewBox is tightened to the emblem's bounding
     box (queried via inkscape) so it displays at a normal logo size. -->
<svg
   viewBox="78.75 136.22 33.17 21.0"
   version="1.1"
   xmlns="http://www.w3.org/2000/svg"
   xmlns:svg="http://www.w3.org/2000/svg">
  <g
     id="g16"
     transform="matrix(0.27731151,0,0,0.27731151,75.426034,130.2873)">
    <path
       d="m 32.8,53.7 v 20 c 12,-6 26.1,-9.4 39.3,-9.4 13.2,0 27.3,3.4 39.3,9.4 v -20 C 99.4,47.5 85.3,44 72.1,44 58.9,44 44.8,47.5 32.8,53.7 Z m 16.6,-0.3 c -1,0.3 -2,0.6 -3.1,0.9 v -1.1 l -4.4,1.5 V 58 c 0,0 4,-1.5 5.7,-2 l 1.8,1.2 v 4.7 l -2.5,3.2 c -1.9,0.6 -3.8,1.3 -5.7,2 -0.7,-0.5 -1.5,-0.9 -2.2,-1.4 v -1.8 c 1,-0.4 2,-0.8 3,-1.2 v 1.7 l 0.4,-0.2 c 1.2,-0.5 4,-1.4 4,-1.4 v -4.2 c 0,0 -4.1,1.4 -5.8,2 L 39,59.5 v -3.9 l 2.4,-3.3 c 1.9,-0.7 3.8,-1.4 5.7,-2 0.8,0.5 1.6,1 2.3,1.5 v 1.4 z m 10.2,-3.2 v 9.6 c 0,0 1.2,-0.2 1.2,-0.2 v 2.5 c -1.9,0.2 -3.7,0.6 -5.6,0.9 v -2.5 l 1.2,-0.2 c 0,0 0,-9.6 0,-9.6 l -2.6,0.5 v 1.7 c -0.8,0.2 -1.6,0.4 -2.4,0.6 v -4.2 c 4.4,-1.1 8.8,-1.8 13.3,-2.2 v 4.2 c -0.8,0 -1.6,0.2 -2.5,0.2 v -1.7 l -2.7,0.3 z m 33.4,11.4 1.2,0.3 c 0,0 0,-9.6 0,-9.6 0,0 -1.2,-0.3 -1.2,-0.3 v -2.5 c 3.9,1 7.9,2.4 11.6,4 v 3.4 c -1,-0.4 -2,-0.8 -3,-1.2 v -0.9 c 0,0 -4.4,-1.5 -4.4,-1.5 v 3.5 c 0,0 2.8,0.9 4.1,1.4 v 2.2 C 100.1,59.9 97.2,59 97.2,59 v 3.8 l 4.4,1.5 v -1.1 c 1,0.4 2,0.8 3,1.2 V 68 C 100.8,66.4 96.9,65.1 93,64.1 Z M 77.5,47 c 4.5,0.3 8.9,1 13.3,2 v 4.2 C 90,53 89.2,52.8 88.4,52.7 V 51 l -2.7,-0.5 v 9.6 c 0,0 1.2,0.2 1.2,0.2 v 2.5 C 85,62.5 83.2,62.2 81.3,62 v -2.5 h 1.2 c 0,0.1 0,-9.4 0,-9.4 l -2.6,-0.3 v 1.7 c -0.8,0 -1.6,-0.1 -2.5,-0.2 V 47.1 Z M 77,59 c 0,0 0.9,0 1.3,0 v 2.5 c -1.8,-0.1 -3.6,-0.2 -5.4,-0.2 v -2.5 h 1.2 c 0,0 -0.8,-2.2 -0.8,-2.2 h -4.8 c 0,0 -0.8,2.3 -0.8,2.3 0,0 1.2,0 1.2,0 v 2.5 c -1.7,0 -3.4,0.2 -5.1,0.3 V 59.2 H 65 c 0,-0.1 4.4,-12.4 4.4,-12.4 1.1,0 2.3,0 3.5,0 L 77.1,59 Z"
       style="fill:#fefefe" />
    <path
       d="m 122.1,60.6 4.3,-9.5 c -7.1,-5.3 -17.8,-9.6 -17.8,-9.6 l 3.7,-6 V 25 H 85 l -9.3,14.5 c -1.2,0 -2.4,0 -3.7,0 -1.3,0 -2.4,0 -3.7,0 L 59,25 H 31.7 v 10.5 l 3.7,6 c 0,0 -10.7,4.3 -17.8,9.6 l 4.3,9.5 -6.3,20.2 c 0,0 5.5,-3.8 12.2,-7.8 v 8.9 c 0,0 3.6,-2.3 7,-4 l -3.2,4.8 V 93.5 H 61.5 V 71.2 L 71.8,87.5 82.1,71.2 V 93.5 H 112 V 82.7 l -3.2,-4.8 c 3.5,1.7 7,4 7,4 V 73 c 6.7,4 12.2,7.8 12.2,7.8 l -6.3,-20.2 z m -7.9,9 v 8.5 c -2.5,-1.5 -5.1,-2.8 -7.9,-4 v 3.6 l 3.7,5.7 v 7.8 H 84.7 V 68 C 83.8,67.9 82.9,67.8 81.9,67.7 L 72.1,83.2 62.3,67.7 c -0.9,0.1 -1.8,0.2 -2.8,0.3 V 91.2 H 34.2 v -7.8 l 3.7,-5.7 v -3.6 c -2.7,1.2 -5.4,2.5 -7.9,4 v -8.5 c -3.3,1.7 -7,3.8 -10.6,6.2 l 4.8,-15.4 -4,-8.7 c 5.4,-3.5 11.4,-6.6 17.6,-9 v -1.9 l -3.7,-6 V 27.2 H 57.8 L 67,41.5 c 1.7,-0.1 3.3,-0.2 5,-0.2 1.7,0 3.3,0 5,0.2 l 9.2,-14.3 h 23.7 v 7.6 l -3.7,6 v 1.9 c 6.2,2.4 12.2,5.4 17.6,9 l -4,8.7 4.8,15.4 C 121,73.4 117.3,71.3 114,69.6 Z"
       style="fill:#fefefe" />
    <path
       d="m 38,45.4 c -5.2,2 -9.9,4.4 -14.4,7.2 L 27,60.1 23.9,70 c 2,-1.2 4.1,-2.2 6.2,-3.3 V 52 C 32.5,50.8 36,49.1 38,48.3 Z"
       style="fill:#fefefe" />
    <polygon
       points="72.6,54.4 71,49.9 69.3,54.4 "
       style="fill:#fefefe" />
    <path
       d="m 117.3,60.1 3.4,-7.5 c -4.5,-2.8 -9.2,-5.2 -14.4,-7.2 v 2.9 c 2,0.8 5.5,2.5 7.9,3.7 v 14.7 c 2.1,1 4.2,2.1 6.2,3.3 z"
       style="fill:#fefefe" />
  </g>
</svg>
